<svg id="レイヤー_1"  xmlns="http://www.w3.org/2000/svg" viewBox="0 0 2998 800"><defs><style>.cls-1,.cls-4{fill:#282c37;}.cls-2{fill:#fff;}.cls-3{fill:#2b90d9;}.cls-4{stroke:#fff;stroke-linejoin:bevel;stroke-width:10px;}</style></defs><title>bigアートボード 1</title><polygon class="cls-1" points="23.86 524.17 23.86 280.54 234.85 402.36 234.85 645.98 23.86 524.17"/><path class="cls-2" d="M28.86,289.2l201,116V637.32l-201-116V289.2m-10-17.32V527.06l221,127.58V399.47l-221-127.59Z"/><polygon class="cls-1" points="28.86 271.88 239.85 150.07 450.84 271.88 239.85 393.7 28.86 271.88"/><path class="cls-2" d="M239.85,155.84l201,116-201,116-201-116,201-116m0-11.54-221,127.58,221,127.59,221-127.59-221-127.58Z"/><polygon class="cls-1" points="244.85 402.36 455.84 280.54 455.84 524.17 244.85 645.98 244.85 402.36"/><path class="cls-2" d="M450.84,289.2V521.28l-201,116V405.24l201-116m10-17.32-221,127.59V654.64l221-127.58V271.88Z"/><polygon class="cls-3" points="328.86 652.17 328.86 408.54 539.85 530.36 539.85 773.98 328.86 652.17"/><path class="cls-2" d="M333.86,417.2l201,116V765.32l-201-116V417.2m-10-17.32V655.06l221,127.58V527.47l-221-127.59Z"/><polygon class="cls-3" points="333.86 399.88 544.85 278.07 755.84 399.88 544.85 521.7 333.86 399.88"/><path class="cls-2" d="M544.85,283.84l201,116-201,116-201-116,201-116m0-11.54-221,127.58,221,127.59,221-127.59-221-127.58Z"/><polygon class="cls-3" points="549.85 530.36 760.84 408.54 760.84 652.17 549.85 773.98 549.85 530.36"/><path class="cls-2" d="M755.84,417.2V649.28l-201,116V533.24l201-116m10-17.32-221,127.59V782.64l221-127.58V399.88Z"/><polygon class="cls-4" points="371.54 324.35 545.06 224.17 718.57 324.35 721.08 322.9 721.08 119.65 545.06 18.02 369.04 119.65 369.04 130.63 369.04 322.9 371.54 324.35"/><path d="M1109.61,583l22.5-186H969.61l-21.5,186h-78l50-389h73l-20.5,177.5h162.5l22-177.5h73l-42.5,389Z"/><path d="M1262.11,583l34.5-266.5h226.5l-32,266.5Zm186.5-241.5h-84l-28,216.5h86Z"/><path d="M1563.1,583l9-77.5h71.5l-6,52h71l13-104.5H1580.1l17.5-136.5h210l-8.5,67h-71.5l5.5-42h-67.5l-11,86.5h141.5l-19.5,155Z"/><path d="M1870.1,583l31.5-241.5h-54.5l6.5-25h51l13-98h71.5l-13,98h69l-8.5,25h-63.5L1944.6,558h73l-8.5,25Z"/><path d="M2054.6,583l33.5-266.5h160l18-158h71.5l-49,424.5Zm190.5-241.5h-88.5L2129.1,558h91Z"/><path d="M2360.6,583l34.5-266.5h226.5l-32,266.5Zm186.5-241.5h-84l-28,216.5h86Z"/><path d="M2818.59,583l29.5-241.5h-84L2732.59,583h-71.5l35-266.5h226.5L2890.09,583Z"/><path d="M823.11,632.44v-25h2099v25Z"/></svg>